<svg xmlns="http://www.w3.org/2000/svg" xmlns:xlink="http://www.w3.org/1999/xlink" width="1280" height="800.035" viewBox="0 0 1280 800.035">
  <defs>
    <linearGradient id="linear-gradient" x1="0.5" y1="1" x2="0.5" gradientUnits="objectBoundingBox">
      <stop offset="0" stop-color="gray" stop-opacity="0.251"/>
      <stop offset="0.54" stop-color="gray" stop-opacity="0.122"/>
      <stop offset="1" stop-color="gray" stop-opacity="0.102"/>
    </linearGradient>
  </defs>
  <g id="Group_2" data-name="Group 2" transform="translate(481.211 77.12)">
    <path id="Path_169" data-name="Path 169" d="M1276,0V800S890.988,811.475,725.881,419.73,244.459,0,244.459,0Z" transform="translate(-477.211 -77.12)" fill="#407fed"/>
    <path id="Path_1" data-name="Path 1" d="M893.176,199.548a174.592,174.592,0,0,0-33.829-45.563l-469.259-3.909L776.446,104.2a254.6,254.6,0,0,0-78.388-13.145c-37.195-25.392-85-40.658-137.142-40.658-46.786,0-90.047,12.293-125.317,33.15A251.441,251.441,0,0,0,335.153,63.085c-104.264,0-191.141,61.048-210.633,142.009Z" transform="translate(-110.968 -50.4)" fill="#fff" opacity="0.096"/>
    <path id="Path_2" data-name="Path 2" d="M887.7,317.161a148.658,148.658,0,0,0-14.624-64.081L59.8,325.273a158.232,158.232,0,0,0-19.054,40.681l251.849,31.739L35,420.836c7.75,91.647,100.687,164.021,214.217,164.021,57.146,0,109.071-18.344,147.548-48.25,38.6,30.471,91,49.193,148.785,49.193,85.7,0,159.674-41.254,194.122-100.906,69.107-18.541,122.789-65.107,141.164-123.348L562.341,319.8H887.7Z" transform="translate(-89 -100.137)" fill="#fff" opacity="0.096"/>
    <ellipse id="Ellipse_1" data-name="Ellipse 1" cx="135.074" cy="8.014" rx="135.074" ry="8.014" transform="translate(288.813 545.927)" fill="#fff" opacity="0.1"/>
    <path id="Path_26" data-name="Path 26" d="M636.468,737.852v4.837H493.38V738.75a47.034,47.034,0,0,0,3.237-86.87H635.525a47.065,47.065,0,0,0,.943,85.972Z" transform="translate(-150.484 -198)" fill="#fffcef"/>
    <path id="Path_29" data-name="Path 29" d="M636.468,764.193v4.837H493.38v-3.939a46.934,46.934,0,0,0,11.032-5.871h123.3A47.124,47.124,0,0,0,636.468,764.193Z" transform="translate(-150.484 -224.341)" opacity="0.1"/>
    <rect id="Rectangle_38" data-name="Rectangle 38" width="237.701" height="14.337" rx="7.169" transform="translate(295.605 536.388)" fill="#fffcef"/>
    <path id="Path_102" data-name="Path 102" d="M-4,0V800H1276S890.988,811.475,725.881,419.73,244.459,0,244.459,0Z" transform="translate(-477.211 -77.12)" fill="#5897f7"/>
    <path id="Path_3" data-name="Path 3" d="M300.038,545.333s-34.878-50.325-28.954-97.819a92.771,92.771,0,0,0-11.168-57.607A155.983,155.983,0,0,0,243.51,366.56" transform="translate(-89.167 -127.984)" fill="none" stroke="#535461" stroke-miterlimit="10" stroke-width="2"/>
    <path id="Path_4" data-name="Path 4" d="M239.955,323.961c2.264,6.829-3.554,30.743-3.554,30.743s-18.933-15.718-21.2-22.555a13.035,13.035,0,0,1,24.751-8.187Z" transform="translate(-82.059 -115.336)" fill="#d6a75d"/>
    <path id="Path_5" data-name="Path 5" d="M283.625,362.752c-1.811,6.965-19.688,23.876-19.688,23.876s-7.35-23.483-5.531-30.448a13.031,13.031,0,1,1,25.22,6.573Z" transform="translate(-92.752 -123.045)" fill="#d6a75d"/>
    <path id="Path_6" data-name="Path 6" d="M309.662,446.939c-5.086,5.1-29.052,10.67-29.052,10.67s5.516-23.981,10.565-29.075a13.033,13.033,0,0,1,18.458,18.4Z" transform="translate(-98.271 -142.252)" fill="#d6a75d"/>
    <path id="Path_7" data-name="Path 7" d="M316.274,517.318c-4.15,5.878-26.834,15.424-26.834,15.424s1.381-24.57,5.531-30.448a13.034,13.034,0,1,1,21.3,15.024Z" transform="translate(-100.438 -159.937)" fill="#d6a75d"/>
    <path id="Path_8" data-name="Path 8" d="M229.734,404.86c6.475,3.139,30.939.513,30.939.513s-13.1-20.827-19.62-23.974a13.032,13.032,0,0,0-11.319,23.461Z" transform="translate(-84.076 -131.354)" fill="#d6a75d"/>
    <path id="Path_9" data-name="Path 9" d="M236.3,485.948c7.123,1.056,29.686-8.769,29.686-8.769s-18.737-15.96-25.845-17.016a13.034,13.034,0,0,0-3.833,25.785Z" transform="translate(-84.67 -150.919)" fill="#d6a75d"/>
    <path id="Path_10" data-name="Path 10" d="M255.563,564.3c6.844,2.264,30.743-3.622,30.743-3.622s-15.771-18.865-22.638-21.129a13.034,13.034,0,1,0-8.135,24.766Z" transform="translate(-89.916 -170.274)" fill="#d6a75d"/>
    <path id="Path_11" data-name="Path 11" d="M239.955,323.961c2.264,6.829-3.554,30.743-3.554,30.743s-18.933-15.718-21.2-22.555a13.035,13.035,0,0,1,24.751-8.187Z" transform="translate(-82.059 -115.336)" opacity="0.25"/>
    <path id="Path_12" data-name="Path 12" d="M283.625,362.752c-1.811,6.965-19.688,23.876-19.688,23.876s-7.35-23.483-5.531-30.448a13.031,13.031,0,1,1,25.22,6.573Z" transform="translate(-92.752 -123.045)" opacity="0.25"/>
    <path id="Path_13" data-name="Path 13" d="M309.662,446.939c-5.086,5.1-29.052,10.67-29.052,10.67s5.516-23.981,10.565-29.075a13.033,13.033,0,0,1,18.458,18.4Z" transform="translate(-98.271 -142.252)" opacity="0.25"/>
    <path id="Path_14" data-name="Path 14" d="M316.274,517.318c-4.15,5.878-26.834,15.424-26.834,15.424s1.381-24.57,5.531-30.448a13.034,13.034,0,1,1,21.3,15.024Z" transform="translate(-100.438 -159.937)" opacity="0.25"/>
    <path id="Path_15" data-name="Path 15" d="M229.734,404.86c6.475,3.139,30.939.513,30.939.513s-13.1-20.827-19.62-23.974a13.032,13.032,0,0,0-11.319,23.461Z" transform="translate(-84.076 -131.354)" opacity="0.25"/>
    <path id="Path_16" data-name="Path 16" d="M236.3,485.948c7.123,1.056,29.686-8.769,29.686-8.769s-18.737-15.96-25.845-17.016a13.034,13.034,0,0,0-3.833,25.785Z" transform="translate(-84.67 -150.919)" opacity="0.25"/>
    <path id="Path_17" data-name="Path 17" d="M255.563,564.3c6.844,2.264,30.743-3.622,30.743-3.622s-15.771-18.865-22.638-21.129a13.034,13.034,0,1,0-8.135,24.766Z" transform="translate(-89.916 -170.274)" opacity="0.25"/>
    <path id="Path_18" data-name="Path 18" d="M277.795,555.083s-52.279-31.875-66.118-77.724a92.817,92.817,0,0,0-33.55-48.136A155.968,155.968,0,0,0,153.67,414.53" transform="translate(-67.121 -139.756)" fill="none" stroke="#535461" stroke-miterlimit="10" stroke-width="2"/>
    <path id="Path_19" data-name="Path 19" d="M134.513,374.98c4.837,5.327,9.206,29.543,9.206,29.543s-23.672-6.7-28.509-12.028a13.032,13.032,0,1,1,19.3-17.514Z" transform="translate(-56.854 -129.001)" fill="#d6a75d"/>
    <path id="Path_20" data-name="Path 20" d="M190.118,392.756c1.162,7.108-8.3,29.814-8.3,29.814s-16.254-18.5-17.424-25.6a13.033,13.033,0,1,1,25.724-4.211Z" transform="translate(-69.71 -131.73)" fill="#d6a75d"/>
    <path id="Path_21" data-name="Path 21" d="M250.124,458.24c-2.588,6.724-22.238,21.529-22.238,21.529s-4.678-24.147-2.1-30.879a13.035,13.035,0,0,1,24.336,9.35Z" transform="translate(-84.628 -146.135)" fill="#d6a75d"/>
    <path id="Path_22" data-name="Path 22" d="M283.636,520.361c-1.411,7.063-18.284,24.977-18.284,24.977s-8.693-23.023-7.282-30.078a13.035,13.035,0,0,1,25.566,5.1Z" transform="translate(-92.702 -161.901)" fill="#d6a75d"/>
    <path id="Path_23" data-name="Path 23" d="M157.787,453.069c7.2.249,28.5-12.074,28.5-12.074s-20.412-13.734-27.611-14a13.032,13.032,0,1,0-.89,26.049Z" transform="translate(-65.042 -142.813)" fill="#d6a75d"/>
    <path id="Path_24" data-name="Path 24" d="M196.809,524.59c6.942-1.917,23.589-20.042,23.589-20.042s-23.6-7.025-30.509-5.078a13.032,13.032,0,1,0,6.943,25.122Z" transform="translate(-73.662 -160.516)" fill="#d6a75d"/>
    <path id="Path_25" data-name="Path 25" d="M246.179,588.375c7.169-.755,26.638-15.771,26.638-15.771s-22.072-10.881-29.233-10.164a13.033,13.033,0,0,0,2.6,25.936Z" transform="translate(-86.305 -176.044)" fill="#d6a75d"/>
    <ellipse id="Ellipse_2" data-name="Ellipse 2" cx="35.361" cy="6.437" rx="35.361" ry="6.437" transform="translate(525.231 583.098)" fill="#fff" opacity="0.1"/>
    <path id="Path_27" data-name="Path 27" d="M636.578,651.89a47.11,47.11,0,0,0-26,31.188h-86.9a47.111,47.111,0,0,0-26-31.188Z" transform="translate(-151.537 -198.003)" opacity="0.1"/>
    <path id="Path_28" data-name="Path 28" d="M276.21,619.22v27.166c0,15,10.979,27.166,24.525,27.166H721.8c13.545,0,24.525-12.164,24.525-27.166V619.22Z" transform="translate(-97.192 -189.986)" fill="#fffcef"/>
    <path id="Path_30" data-name="Path 30" d="M746.329,216.745A24.525,24.525,0,0,0,721.8,192.22H300.735a24.525,24.525,0,0,0-24.525,24.525V519.719H746.329Z" transform="translate(-97.192 -85.202)" fill="#082843"/>
    <rect id="Rectangle_39" data-name="Rectangle 39" width="444.462" height="284.486" rx="16" transform="translate(191.847 130.411)" fill="#fffcef"/>
    <circle id="Ellipse_3" data-name="Ellipse 3" cx="5.66" cy="5.66" r="5.66" transform="translate(408.418 113.055)" fill="#eae0b5"/>
    <circle id="Ellipse_4" data-name="Ellipse 4" cx="13.96" cy="13.96" r="13.96" transform="translate(400.118 443.572)" fill="#eae0b5"/>
    <path id="Path_31" data-name="Path 31" d="M737.672,235.294H293.21a12.074,12.074,0,0,1,12.074-12.074H725.6A12.074,12.074,0,0,1,737.672,235.294Z" transform="translate(-101.363 -92.809)" fill="#d6a75d"/>
    <circle id="Ellipse_5" data-name="Ellipse 5" cx="3.018" cy="3.018" r="3.018" transform="translate(200.902 133.429)" fill="#ededf4"/>
    <circle id="Ellipse_6" data-name="Ellipse 6" cx="3.018" cy="3.018" r="3.018" transform="translate(209.957 133.429)" fill="#ededf4"/>
    <circle id="Ellipse_7" data-name="Ellipse 7" cx="3.018" cy="3.018" r="3.018" transform="translate(219.012 133.429)" fill="#ededf4"/>
    <rect id="Rectangle_40" data-name="Rectangle 40" width="113.945" height="6.791" transform="translate(208.448 152.672)" fill="#d6a75d"/>
    <rect id="Rectangle_41" data-name="Rectangle 41" width="113.945" height="6.791" transform="translate(208.448 351.133)" fill="#d6a75d"/>
    <rect id="Rectangle_42" data-name="Rectangle 42" width="211.289" height="6.791" transform="translate(208.448 366.225)" fill="#d6a75d" opacity="0.2"/>
    <rect id="Rectangle_43" data-name="Rectangle 43" width="211.289" height="6.791" transform="translate(208.448 376.042)" fill="#d6a75d" opacity="0.2"/>
    <rect id="Rectangle_44" data-name="Rectangle 44" width="211.289" height="6.791" transform="translate(208.448 385.852)" fill="#d6a75d" opacity="0.2"/>
    <rect id="Rectangle_45" data-name="Rectangle 45" width="209.78" height="113.945" transform="translate(208.448 170.782)" fill="#d6a75d" opacity="0.2"/>
    <rect id="Rectangle_46" data-name="Rectangle 46" width="49.049" height="45.276" transform="translate(210.712 295.292)" fill="#d6a75d" opacity="0.2"/>
    <rect id="Rectangle_47" data-name="Rectangle 47" width="49.049" height="45.276" transform="translate(369.179 295.292)" fill="#d6a75d" opacity="0.2"/>
    <rect id="Rectangle_48" data-name="Rectangle 48" width="49.049" height="45.276" transform="translate(288.813 295.292)" fill="#d6a75d" opacity="0.2"/>
    <rect id="Rectangle_49" data-name="Rectangle 49" width="144.379" height="106.271" transform="translate(463.006 203.924)" fill="#d6a75d" opacity="0.2"/>
    <rect id="Rectangle_50" data-name="Rectangle 50" width="113.945" height="6.791" transform="translate(478.219 225.491)" fill="#fffcef"/>
    <rect id="Rectangle_51" data-name="Rectangle 51" width="113.945" height="6.791" transform="translate(478.219 239.58)" fill="#fffcef"/>
    <rect id="Rectangle_52" data-name="Rectangle 52" width="113.945" height="6.791" transform="translate(478.219 253.668)" fill="#fffcef"/>
    <rect id="Rectangle_53" data-name="Rectangle 53" width="113.945" height="6.791" transform="translate(478.219 267.749)" fill="#fffcef"/>
    <rect id="Rectangle_54" data-name="Rectangle 54" width="113.945" height="6.791" transform="translate(478.219 281.837)" fill="#fffcef"/>
    <rect id="Rectangle_55" data-name="Rectangle 55" width="109.169" height="19.114" transform="translate(480.611 322.269)" fill="#d6a75d"/>
    <rect id="Rectangle_56" data-name="Rectangle 56" width="73.204" height="12.821" transform="translate(474.778 385.958)" fill="#d6a75d"/>
    <ellipse id="Ellipse_8" data-name="Ellipse 8" cx="25.177" cy="2.553" rx="25.177" ry="2.553" transform="translate(163.241 595.55)" fill="#fff" opacity="0.1"/>
    <ellipse id="Ellipse_31" data-name="Ellipse 31" cx="31.014" cy="3.145" rx="31.014" ry="3.145" transform="translate(259.431 643.272)" fill="#fff" opacity="0.1"/>
    <ellipse id="Ellipse_9" data-name="Ellipse 9" cx="12.934" cy="1.313" rx="12.934" ry="1.313" transform="translate(620.855 552.492)" fill="#fff" opacity="0.1"/>
    <path id="Path_32" data-name="Path 32" d="M300.6,778s-32.835,16.963-15.845,36.973c0,0,1.593,4.4,6.215,4.032,0,0-.924-1.681,2.641-3.02a17.214,17.214,0,0,0,3.521-1.884,8.355,8.355,0,0,0,3.178-4.243h0s6.717-8.988,1.514-25.617c0,0,.669-4.7.079-5.458l-4.032,5.379s4.129,2.764,4.6,6.831c0,0-4.3-6.822-5.229-6.048-.185.159-1.981,2.993-1.981,2.993s7.148,4.85,7.685,11.145c0,0-4.032-8.8-8.38-10.079l-2.456,4.446s7.817,4.754,8.7,11.9c0,0-4.534-9.067-9.164-10.9l-1.831,4.692s7.526,4.789,8.222,10.74c0,0-6.294-9.947-8.565-9.683,0,0-1.417,4.4-1.232,5.766,0,0,5.326,3.521,5.423,7.042,0,0-4.912-6.206-5.669-5.792,0,0-.317,6.233,1.2,9.481a18.854,18.854,0,0,1-2.174-9.481,10.424,10.424,0,0,0-3.151,5.114s-1.417-3.433,3.248-6.585c0,0,.44-4.85.977-5.449,0,0-5.044,2.456-7.183,5.484,0,0,.784-4.507,7.623-6.743l1.761-4.754s-6.831,2.9-8.935,5.449c0,0,1.514-4.472,9.472-6.611l2.359-4.4s-6.074,2.042-9.032,4.4c0,0,2.3-3.838,9.763-5.608l1.919-2.738s-4.4,1.576-5.634,2.139-1.479.282-1.479.282a15.913,15.913,0,0,1,7.923-3.583S300.91,778.255,300.6,778Z" transform="translate(-103.39 -221.949)" fill="#d6a75d"/>
    <path id="Path_103" data-name="Path 103" d="M284.105,778s43.392,20.9,20.94,45.546a8.216,8.216,0,0,1-8.213,4.967s1.221-2.071-3.49-3.72a23.333,23.333,0,0,1-4.653-2.32,10.393,10.393,0,0,1-4.2-5.227h0s-8.876-11.072-2-31.557c0,0-.884-5.791-.1-6.724l5.328,6.626s-5.456,3.405-6.073,8.415c0,0,5.677-8.4,6.91-7.45.244.2,2.617,3.687,2.617,3.687s-9.446,5.975-10.156,13.729c0,0,5.328-10.844,11.075-12.417l3.246,5.476s-10.33,5.856-11.494,14.661c0,0,5.991-11.17,12.11-13.425l2.42,5.78s-9.946,5.9-10.865,13.23c0,0,8.318-12.254,11.319-11.929,0,0,1.873,5.422,1.629,7.1,0,0-7.038,4.338-7.166,8.675,0,0,6.491-7.645,7.492-7.135,0,0,.419,7.678-1.582,11.679,0,0,3.42-5.7,2.873-11.679a12.737,12.737,0,0,1,4.165,6.3s1.873-4.229-4.293-8.111c0,0-.582-5.975-1.291-6.712,0,0,6.666,3.025,9.493,6.756,0,0-1.035-5.552-10.074-8.307l-2.327-5.856s9.027,3.568,11.808,6.713c0,0-2-5.509-12.517-8.144l-3.118-5.422s8.027,2.516,11.936,5.422c0,0-3.036-4.728-12.9-6.908l-2.536-3.372s5.817,1.941,7.445,2.635,1.954.347,1.954.347a21.771,21.771,0,0,0-10.47-4.414S283.7,778.315,284.105,778Z" transform="translate(-5.566 -181.949)" fill="#d6a75d"/>
    <ellipse id="Ellipse_10" data-name="Ellipse 10" cx="16.541" cy="1.675" rx="16.541" ry="1.675" transform="translate(108.214 550.084)" fill="#fff" opacity="0.1"/>
    <ellipse id="Ellipse_32" data-name="Ellipse 32" cx="20.453" cy="2.071" rx="20.453" ry="2.071" transform="translate(254.214 562.218)" fill="#fff" opacity="0.1"/>
    <path id="Path_33" data-name="Path 33" d="M207.57,745S186,756.138,197.141,769.268a4.143,4.143,0,0,0,4.082,2.649s-.6-1.1,1.713-1.985a11.713,11.713,0,0,0,2.324-1.238,5.516,5.516,0,0,0,2.09-2.792h0s4.407-5.9.989-16.82c0,0,.445-3.094.053-3.592l-2.618,3.6s2.709,1.819,3.018,4.482c0,0-2.822-4.475-3.433-3.969-.121.106-1.3,1.969-1.3,1.969s4.694,3.184,5.048,7.32c0,0-2.649-5.8-5.509-6.618l-1.607,2.913s5.124,3.124,5.7,7.818c0,0-2.981-5.954-6.037-7.154l-1.2,3.079s4.95,3.147,5.4,7.055c0,0-4.135-6.535-5.629-6.331a16.1,16.1,0,0,0-.807,3.773s3.5,2.339,3.562,4.633c0,0-3.23-4.075-3.728-3.773,0,0-.2,4.09.792,6.225a12.444,12.444,0,0,1-1.434-6.225,6.882,6.882,0,0,0-2.068,3.328s-.928-2.264,2.135-4.324c0,0,.287-3.184.641-3.577,0,0-3.313,1.615-4.716,3.6,0,0,.513-2.958,5-4.429l1.139-3.124s-4.49,1.9-5.878,3.584c0,0,1-2.943,6.225-4.346l1.555-2.875A25.4,25.4,0,0,0,196.719,755s1.509-2.528,6.414-3.682l1.26-1.8s-2.89,1.034-3.7,1.411-.973.181-.973.181a10.475,10.475,0,0,1,5.192-2.354S207.736,745.151,207.57,745Z" transform="translate(-77.005 -220.851)" fill="#d6a75d"/>
    <path id="Path_104" data-name="Path 104" d="M210.792,745s-26.667,13.772-12.9,30.007a5.123,5.123,0,0,0,5.048,3.275s-.746-1.362,2.118-2.454a14.482,14.482,0,0,0,2.874-1.53,6.821,6.821,0,0,0,2.585-3.452h0s5.449-7.3,1.222-20.8c0,0,.55-3.825.065-4.441l-3.238,4.451s3.35,2.249,3.732,5.542c0,0-3.49-5.533-4.245-4.908-.149.131-1.6,2.435-1.6,2.435s5.8,3.937,6.242,9.051c0,0-3.275-7.166-6.811-8.183l-1.987,3.6s6.336,3.863,7.054,9.667c0,0-3.686-7.362-7.465-8.846L202,762.224s6.121,3.891,6.681,8.724c0,0-5.113-8.08-6.961-7.828,0,0-1.148,3.583-1,4.665,0,0,4.329,2.893,4.4,5.729,0,0-3.994-5.039-4.609-4.665,0,0-.252,5.057.98,7.7a15.387,15.387,0,0,1-1.773-7.7,8.509,8.509,0,0,0-2.557,4.115s-1.148-2.8,2.641-5.346c0,0,.355-3.938.793-4.423,0,0-4.1,2-5.832,4.451,0,0,.634-3.658,6.186-5.477l1.409-3.863s-5.552,2.351-7.269,4.432c0,0,1.232-3.639,7.7-5.374l1.922-3.555s-4.936,1.661-7.343,3.555c0,0,1.866-3.126,7.931-4.553l1.558-2.23s-3.574,1.278-4.572,1.745-1.2.224-1.2.224a12.953,12.953,0,0,1,6.42-2.911S211,745.187,210.792,745Z" transform="translate(71.059 -214.851)" fill="#d6a75d"/>
    <path id="Path_34" data-name="Path 34" d="M883.275,755.41s-16.865,8.746-8.157,18.978a3.237,3.237,0,0,0,3.192,2.068s-.475-.86,1.343-1.555a8.726,8.726,0,0,0,1.819-.966,4.317,4.317,0,0,0,1.63-2.181h0s3.448-4.618.755-13.153c0,0,.34-2.415.038-2.807l-2.045,2.807a5.743,5.743,0,0,1,2.362,3.516s-2.211-3.509-2.686-3.109c-.1.083-1.019,1.509-1.019,1.509s3.675,2.49,3.947,5.72c0,0-2.068-4.528-4.3-5.169l-1.207,2.332s4.007,2.437,4.46,6.112c0,0-2.324-4.656-4.709-5.6l-.936,2.415s3.864,2.452,4.226,5.516c0,0-3.237-5.116-4.4-4.95a12.36,12.36,0,0,0-.634,2.958s2.732,1.826,2.784,3.622c0,0-2.528-3.184-2.913-2.973a13.339,13.339,0,0,0,.611,4.867,9.811,9.811,0,0,1-1.117-4.867,5.371,5.371,0,0,0-1.615,2.6s-.755-1.766,1.668-3.381a12.578,12.578,0,0,1,.5-2.8,11.6,11.6,0,0,0-3.682,2.815s.4-2.317,3.909-3.464l.891-2.437s-3.509,1.509-4.6,2.792c0,0,.755-2.264,4.875-3.4l1.207-2.264a20.156,20.156,0,0,0-4.641,2.264s1.185-1.97,5.018-2.875l.981-1.411s-2.264.815-2.89,1.1-.755.143-.755.143a8.164,8.164,0,0,1,4.06-1.841S883.426,755.561,883.275,755.41Z" transform="translate(-243.548 -223.406)" fill="#d6a75d"/>
    <ellipse id="Ellipse_11" data-name="Ellipse 11" cx="31.505" cy="2.634" rx="31.505" ry="2.634" transform="translate(671.836 597.813)" fill="#fff" opacity="0.1"/>
    <path id="Path_35" data-name="Path 35" d="M989.17,734.174a13.17,13.17,0,0,0-1.721,3.245c-.106.279-.2.6-.309.913a3.35,3.35,0,0,0-.6-.211,8.306,8.306,0,0,0-2.686-.226c0-.355.038-.717.053-1.109.106-3.977-.362-9.523-4.158-7.169-3.637,2.264-1.041,6.037,1.305,8.452.2.211.407.407.6.6-2.135,1.509-2.551,5.079-2.905,8.784s-3.5,7.757-5.584,10.059l-.6.641a7.637,7.637,0,0,0-6.037-1.562c-.09-.325-.181-.664-.287-1.019-1.683-6.1-5.192-16.677-9.674-18.994.2-.234.392-.483.6-.754,1.9-2.49,4.037-6.18.875-7.123s-3.441,3.2-3.267,6.308a6.48,6.48,0,0,0,.091,1.109,4.641,4.641,0,0,0-3.313,1.615l-.483-.581c-2.566-3.018-7.274-7.825-8.693-4.2-1.328,3.381,2.807,7.773,5.72,10.315l.189.159c-1.962,7.931,6.573,14.4,11.168,17.228l.6.362c-6.339,7.471-10.248,21.476-10.248,21.476l17.748,3.169s11.764-10.157,10.263-19.7h.121c11.757-2.354,14.436-14.9,12.6-22.344l.2-.083a13.32,13.32,0,0,0,5.448-4.12C999.448,734.831,992.588,729.647,989.17,734.174Z" transform="translate(-260.603 -216.817)" fill="#d6a75d"/>
    <path id="Path_36" data-name="Path 36" d="M989.17,734.174a13.17,13.17,0,0,0-1.721,3.245c-.106.279-.2.6-.309.913a3.35,3.35,0,0,0-.6-.211,8.306,8.306,0,0,0-2.686-.226c0-.355.038-.717.053-1.109.106-3.977-.362-9.523-4.158-7.169-3.637,2.264-1.041,6.037,1.305,8.452.2.211.407.407.6.6-2.135,1.509-2.551,5.079-2.905,8.784s-3.5,7.757-5.584,10.059l-.6.641a7.637,7.637,0,0,0-6.037-1.562c-.09-.325-.181-.664-.287-1.019-1.683-6.1-5.192-16.677-9.674-18.994.2-.234.392-.483.6-.754,1.9-2.49,4.037-6.18.875-7.123s-3.441,3.2-3.267,6.308a6.48,6.48,0,0,0,.091,1.109,4.641,4.641,0,0,0-3.313,1.615l-.483-.581c-2.566-3.018-7.274-7.825-8.693-4.2-1.328,3.381,2.807,7.773,5.72,10.315l.189.159c-1.962,7.931,6.573,14.4,11.168,17.228l.6.362c-6.339,7.471-10.248,21.476-10.248,21.476l17.748,3.169s11.764-10.157,10.263-19.7h.121c11.757-2.354,14.436-14.9,12.6-22.344l.2-.083a13.32,13.32,0,0,0,5.448-4.12C999.448,734.831,992.588,729.647,989.17,734.174Z" transform="translate(-260.603 -216.817)" opacity="0.1"/>
    <path id="Path_37" data-name="Path 37" d="M954.183,740.263l-2.075,6.037s-1.155-.815-2.611-2.1c-2.905-2.543-7.048-6.935-5.72-10.315,1.419-3.63,6.127,1.162,8.693,4.2C953.5,739.327,954.183,740.263,954.183,740.263Z" transform="translate(-260.947 -217.805)" fill="#d6a75d"/>
    <path id="Path_38" data-name="Path 38" d="M962.67,735.8a30.656,30.656,0,0,1-2.022,2.384,29.4,29.4,0,0,1-.37-3.2c-.174-3.109.151-7.237,3.267-6.309S964.587,733.31,962.67,735.8Z" transform="translate(-265.049 -216.813)" fill="#d6a75d"/>
    <path id="Path_39" data-name="Path 39" d="M996.99,736.916c-.068,2-.264,3.6-.264,3.6a26.352,26.352,0,0,1-2.588-2.317c-2.347-2.437-4.943-6.2-1.306-8.452C996.628,727.393,997.1,732.939,996.99,736.916Z" transform="translate(-272.604 -216.97)" fill="#d6a75d"/>
    <path id="Path_40" data-name="Path 40" d="M1012.012,740.636a13.348,13.348,0,0,1-5.441,4.12,16.958,16.958,0,0,1-1.826.664l-2.445-3.434a24.326,24.326,0,0,1,1-3.335,13.158,13.158,0,0,1,1.72-3.245C1008.4,730.9,1015.3,736.086,1012.012,740.636Z" transform="translate(-275.371 -218.072)" fill="#d6a75d"/>
    <path id="Path_41" data-name="Path 41" d="M954.413,739.92c1.026,1.207,1.713,2.143,1.713,2.143l-2.075,6.037s-1.155-.815-2.611-2.1a11.933,11.933,0,0,1,2.339-5.335Q954.078,740.278,954.413,739.92Z" transform="translate(-262.89 -219.605)" opacity="0.1"/>
    <path id="Path_42" data-name="Path 42" d="M962.682,737.895a30.6,30.6,0,0,1-2.022,2.384,29.421,29.421,0,0,1-.37-3.2,4.188,4.188,0,0,1,2.392.815Z" transform="translate(-265.062 -218.908)" opacity="0.1"/>
    <path id="Path_43" data-name="Path 43" d="M970.693,762.366l-5.162,2.264s-1.132-.543-2.754-1.555c-5.418-3.335-16.33-11.734-9.055-21.634s13.409,7.855,15.847,16.541C970.286,760.585,970.693,762.366,970.693,762.366Z" transform="translate(-262.855 -219.262)" fill="#d6a75d"/>
    <path id="Path_44" data-name="Path 44" d="M995.15,740.713A4.226,4.226,0,0,1,998,739.43c-.068,2-.264,3.6-.264,3.6A26.347,26.347,0,0,1,995.15,740.713Z" transform="translate(-273.616 -219.485)" opacity="0.1"/>
    <path id="Path_45" data-name="Path 45" d="M1006.611,746.375a16.946,16.946,0,0,1-1.826.664l-2.445-3.433a24.372,24.372,0,0,1,1-3.335C1004.891,741.191,1006.053,743.485,1006.611,746.375Z" transform="translate(-275.38 -219.691)" opacity="0.1"/>
    <path id="Path_46" data-name="Path 46" d="M987.624,768.942c-.287.06-.581.113-.875.151-17.3,2.634-5.7-6.7-5.7-6.7s.755-.717,1.841-1.894c2.083-2.264,5.222-6.331,5.584-10.059.543-5.607,1.17-10.866,7.787-9.327S1003.984,765.659,987.624,768.942Z" transform="translate(-269.221 -219.831)" fill="#d6a75d"/>
    <rect id="Rectangle_57" data-name="Rectangle 57" width="33.059" height="8.693" transform="translate(685.003 592.191)" fill="#d4dfec"/>
    <rect id="Rectangle_58" data-name="Rectangle 58" width="43.194" height="30.335" transform="translate(679.744 563.939)" fill="#d4dfec"/>
    <rect id="Rectangle_59" data-name="Rectangle 59" width="33.059" height="8.693" transform="translate(685.003 592.191)" opacity="0.1"/>
    <rect id="Rectangle_60" data-name="Rectangle 60" width="43.194" height="30.335" transform="translate(679.744 563.939)" opacity="0.1"/>
    <rect id="Rectangle_61" data-name="Rectangle 61" width="33.059" height="8.693" transform="translate(687.177 592.191)" fill="#d4dfec"/>
    <path id="Path_47" data-name="Path 47" d="M973.281,764.32c.755,2.6,1.124,4.377,1.124,4.377l-5.161,2.264s-1.132-.543-2.754-1.555C968.512,766.848,970.8,764.916,973.281,764.32Z" transform="translate(-266.583 -225.592)" opacity="0.1"/>
    <path id="Path_48" data-name="Path 48" d="M987.624,775.334c-.287.06-.581.113-.875.151-17.3,2.634-5.7-6.7-5.7-6.7s.755-.717,1.841-1.894A11.508,11.508,0,0,1,987.624,775.334Z" transform="translate(-269.221 -226.223)" opacity="0.1"/>
    <path id="Path_49" data-name="Path 49" d="M953.7,791.527s9.689-34.712,23.272-24-5.524,27.166-5.524,27.166Z" transform="translate(-263.444 -225.875)" fill="#d6a75d"/>
    <circle id="Ellipse_12" data-name="Ellipse 12" cx="1.087" cy="1.087" r="1.087" transform="translate(694.059 526.541)" opacity="0.1"/>
    <circle id="Ellipse_13" data-name="Ellipse 13" cx="1.087" cy="1.087" r="1.087" transform="translate(693.968 531.612)" opacity="0.1"/>
    <circle id="Ellipse_14" data-name="Ellipse 14" cx="1.087" cy="1.087" r="1.087" transform="translate(725.481 527.537)" opacity="0.1"/>
    <circle id="Ellipse_15" data-name="Ellipse 15" cx="1.087" cy="1.087" r="1.087" transform="translate(700.126 553.525)" opacity="0.1"/>
    <circle id="Ellipse_16" data-name="Ellipse 16" cx="1.087" cy="1.087" r="1.087" transform="translate(723.217 535.958)" opacity="0.1"/>
    <circle id="Ellipse_17" data-name="Ellipse 17" cx="1.087" cy="1.087" r="1.087" transform="translate(711.988 547.187)" opacity="0.1"/>
    <circle id="Ellipse_18" data-name="Ellipse 18" cx="1.087" cy="1.087" r="1.087" transform="translate(697.771 528.714)" opacity="0.1"/>
    <circle id="Ellipse_19" data-name="Ellipse 19" cx="1.087" cy="1.087" r="1.087" transform="translate(722.492 530.797)" opacity="0.1"/>
    <circle id="Ellipse_20" data-name="Ellipse 20" cx="1.087" cy="1.087" r="1.087" transform="translate(718.78 539.218)" opacity="0.1"/>
    <circle id="Ellipse_21" data-name="Ellipse 21" cx="1.087" cy="1.087" r="1.087" transform="translate(707.37 552.71)" opacity="0.1"/>
    <circle id="Ellipse_22" data-name="Ellipse 22" cx="1.087" cy="1.087" r="1.087" transform="translate(705.016 547.368)" opacity="0.1"/>
    <circle id="Ellipse_23" data-name="Ellipse 23" cx="1.087" cy="1.087" r="1.087" transform="translate(699.401 535.324)" opacity="0.1"/>
    <rect id="Rectangle_62" data-name="Rectangle 62" width="33.059" height="3.177" transform="translate(687.177 592.191)" opacity="0.1"/>
    <rect id="Rectangle_63" data-name="Rectangle 63" width="43.194" height="30.335" transform="translate(681.925 563.939)" fill="#d4dfec"/>
    <circle id="Ellipse_24" data-name="Ellipse 24" cx="1.087" cy="1.087" r="1.087" transform="translate(708.819 557.6)" opacity="0.1"/>
    <circle id="Ellipse_25" data-name="Ellipse 25" cx="1.087" cy="1.087" r="1.087" transform="translate(702.299 558.959)" opacity="0.1"/>
    <path id="Path_50" data-name="Path 50" d="M827.4,574.2c-.906-.649-1.283-2.211-1.419-3.773,0-.355-.053-.7-.068-1.034a3.775,3.775,0,0,0,1.049-.951c1.789-2.535-2.483-11.734-2.483-11.734s1.653-4.8,0-8.935-2.407-4.935-2.407-4.935-5.584-11.47-4.754-12.828-1.381-12.074-3.018-14.224a31.373,31.373,0,0,0-2.2-2.671,15.534,15.534,0,0,0-2.068-8.3c-2.347-3.637-4.958-13.734-4.958-13.734s-2.89-9.47-4.958-12.828a14.34,14.34,0,0,0-3.018-3.1c.324-1.509,1.072-3.509-1.072-15.341-.875-4.86.49-7.757,1.615-12.564s.883-10.368-2.566-14-8.8-4.309-13.077-6.791c-3.773-2.181-7.131-5.871-11.538-5.8-3.237.053-3.23.558-6.21,1.773-5.154,2.1-10.949,1.464-16.186,3.2-4.709,1.562-10.693,6.693-9.267,12.134a5.961,5.961,0,0,0,1.736,3.23,3.9,3.9,0,0,0,3.66.656.476.476,0,0,1-.053.264,13.916,13.916,0,0,0-.181,2.264A14.908,14.908,0,0,0,759,458.84c.045.173.083.355.128.536.113.483.219.966.325,1.464-.392.521-.8,1.041-1.185,1.562A15.151,15.151,0,0,0,756,466.424c-4.362.89-11.674,2.332-12.828,4.218-1.509,2.535-7.712,15.092-7.025,20.8.038.317.068.755.1,1.207,0,0-3.818,6.791-4.369,8.927s-1.788,10.134-4.135,12-7.161,7.871-6.474,9.055-6.475,2.664-6.475,2.664-4.814,1.864-4.528,3.335c.083.445-.256.868-.755,1.275-5.479-1.8-12.459-3.018-17.869-.272-7.546,3.826,5.69,6.459,13.583,7.614,1.3.2,2.445.347,3.335.453.06.257.309.483.943.7.5.174,1.238.445,2.1.755l.317-.981c2.618.928,9.764,3.818,9.764,3.818s6.2,1.011,7.991-2.588a32.645,32.645,0,0,1,5.056-6.037l-.249.807-5.222,17.228s-8.263,12.828-7.848,15.6-2.618,9.87-3.305,10.564-7.546,20.933-11.161,22.268-8.406,6-6.791,7.471,8.3,6.263,11.319,4.663,8.3,1.336,8.3,1.336,5.78-.951,10.489,1.313c.053.521.113,1.087.173,1.683.491,4.528,1.29,10.783,2.143,12.6,1.381,2.935,2.618,8.135,1.509,10.134s.966,40.137,3.018,46.672c1.615,5.116,3.826,13.349,3.448,18.722-.226,3.267-.362,6.535-.385,9.81v.543c0,.181-.128.287-.189.438v.294a27.094,27.094,0,0,0-1.2,3.479s-3.554,8.935-2.354,11.266a2.089,2.089,0,0,0,.566.656c1.713,1.373,6.037,1.668,7.546,1.728l-.068,2.264h2.03s.053-2.264.189-5.086a13.881,13.881,0,0,0,.875-4.965,20.3,20.3,0,0,1,1.811-8.58s.045-.234.09-.611h0a15.13,15.13,0,0,0,.128-2.347,8.3,8.3,0,0,0-.755-3.992,8.984,8.984,0,0,1,.151-2.437c.551-2-.83-16-.83-16l2.339-25.739s1.381-19.869.83-25.068a16.523,16.523,0,0,1,.1-4.18,134.918,134.918,0,0,0,1.509-17.069c0-.536,0-1.064,0-1.6,5.011,1.721,13.507.309,13.507.309s1.977-.045,4.6,0c.068.543.143,1.079.219,1.6a29.888,29.888,0,0,0,1.366,6.346c1.373,2.935,2.618,8.135,1.509,10.134s.958,40.137,3.018,46.672c1.622,5.116,3.833,13.341,3.456,18.722-.226,3.26-.362,6.527-.385,9.81v.6c-.068.143-.136.287-.2.438s0,.2,0,.294a27.5,27.5,0,0,0-1.139,3.494s-3.562,8.942-2.354,11.274a1.984,1.984,0,0,0,.566.649c1.713,1.381,6.037,1.668,7.546,1.728l-.068,2.264h2.03s.053-2.264.189-5.086a13.883,13.883,0,0,0,.875-4.965,20.374,20.374,0,0,1,1.781-8.58,15.653,15.653,0,0,0,.219-2.943,8.256,8.256,0,0,0-.792-4.014,9.277,9.277,0,0,1,.151-2.43c.551-2-.823-16.005-.823-16.005l2.339-25.732s1.381-19.869.823-25.068a16.854,16.854,0,0,1,.106-4.181,134.5,134.5,0,0,0,1.509-16.216v-1.622c.5-.611,1.509-1.094,4.3-2.03,4.822-1.6,14.466-9.606,18.322-10.134s7.3-3.071,6.2-5.071-7.161-3.335-6.61-6.4-3.72-4.935-5.644-10-10.338-9.055-10.474-12.828-7.938-15.3-7.938-15.3-7.84-13.04-9.576-21.008a2.81,2.81,0,0,0-.1-.513h.1a14.432,14.432,0,0,1-.287-1.811,2.791,2.791,0,0,1,.068-.513h-.106v-.34a1.218,1.218,0,0,1,.166-.106l.453-.264-.151.06a14.943,14.943,0,0,0,2.5-2.037,11.1,11.1,0,0,0,2.875-4.015,20.378,20.378,0,0,0,1.124-5.282l.981-1.509c.951,3.977,2.339,9.682,2.777,10.957a111.185,111.185,0,0,1,4.965,16.571,56.286,56.286,0,0,0,6.037,15.605s7.025,9.2,12.4,9.6,2.347,1.864,3.169,2.136l.234.053.083,1.079.234,3.132s5.509,22.4,11.711,19.2S829.453,575.661,827.4,574.2Z" transform="translate(-198.585 -141.257)" fill="url(#linear-gradient)"/>
    <path id="Path_51" data-name="Path 51" d="M869.365,641.331c-5.961,3.184-11.259-19.061-11.259-19.061l-.226-3.117-.43-5.893,7.282.928a22.246,22.246,0,0,0,0,3.826c.128,1.509.5,3.086,1.366,3.72C868.037,623.2,875.319,638.154,869.365,641.331Z" transform="translate(-239.825 -188.523)" fill="#ebbe97"/>
    <path id="Path_52" data-name="Path 52" d="M754.21,822.475l.505-.385A2.717,2.717,0,0,1,754.21,822.475Z" transform="translate(-214.491 -239.769)" fill="#a1616a"/>
    <path id="Path_53" data-name="Path 53" d="M766.908,660.64v17.167a138.869,138.869,0,0,1-1.509,16.956,16.938,16.938,0,0,0-.1,4.143c.528,5.169-.755,24.9-.755,24.9l-2.264,25.558s1.321,13.9.755,15.847a9.615,9.615,0,0,0-.143,2.422c.075,2.264.468,5.169.6,6.037v.264l-.083.06-11.07,8.444c1.766-1.607,2.218-5.35,2.211-8.821v-1.132q0-4.867.377-9.734c.362-5.335-1.766-13.507-3.32-18.594-1.985-6.482-3.977-44.356-2.913-46.34s-.136-7.154-1.456-10.066c-.777-1.773-1.532-7.976-1.984-12.5-.287-2.747-.46-4.829-.46-4.829Z" transform="translate(-212.179 -200.15)" fill="#ebbe97"/>
    <path id="Path_54" data-name="Path 54" d="M805.26,817.968l.543-.407A3.189,3.189,0,0,1,805.26,817.968Z" transform="translate(-227.018 -238.657)" fill="#a1616a"/>
    <path id="Path_55" data-name="Path 55" d="M817.95,656.14v18.013a138.918,138.918,0,0,1-1.456,16.111,16.929,16.929,0,0,0-.1,4.143c.528,5.169-.755,24.9-.755,24.9l-2.264,25.559s1.328,13.9.8,15.847a9.23,9.23,0,0,0-.143,2.415c.075,2.264.475,5.214.6,6.037a.657.657,0,0,0,.038.249l-.083.06h0L803.5,777.918c1.713-1.645,2.158-5.343,2.151-8.769V768.01c0-3.245.151-6.49.37-9.734.355-5.335-1.766-13.5-3.32-18.586-1.992-6.482-3.977-44.356-2.913-46.34s-.136-7.154-1.456-10.067a30.244,30.244,0,0,1-1.321-6.3c-.7-5.041-1.2-11.04-1.2-11.04Z" transform="translate(-224.699 -199.046)" fill="#ebbe97"/>
    <path id="Path_56" data-name="Path 56" d="M793.237,461.355l-.113.174a14.533,14.533,0,0,1-10.074,6.037,12.491,12.491,0,0,1-1.773.121c-.045-.181-.083-.362-.128-.536-.868-3.773-1.789-6.791-1.789-6.791s.989-1.426,2.43-3.245c3.917-4.95,11.13-12.775,10.565-2.317a17.934,17.934,0,0,0,.755,6.271A.856.856,0,0,1,793.237,461.355Z" transform="translate(-220.662 -148.368)" opacity="0.1"/>
    <path id="Path_57" data-name="Path 57" d="M791.708,448.764a14.556,14.556,0,0,1-12.775,14.451,14.067,14.067,0,0,1-1.8.113h-.106a14.564,14.564,0,1,1,14.677-14.564Z" transform="translate(-216.545 -144.583)" fill="#ebbe97"/>
    <path id="Path_58" data-name="Path 58" d="M809.942,494.985l-14.126,12.074s-15.4-21.974-13.583-26.479c.581-1.411.513-3.916.143-6.708-.2-1.509-.5-3.177-.83-4.747-.1-.49-.2-.973-.309-1.449-.045-.181-.083-.362-.128-.536-.868-3.773-1.788-6.791-1.788-6.791s.989-1.426,2.43-3.245c3.916-4.95,11.13-12.775,10.564-2.317a17.938,17.938,0,0,0,.755,6.271,1.024,1.024,0,0,0,.113.355c2.007,6.173,6.9,11.1,10.655,14.156a42.133,42.133,0,0,0,4.867,3.456Z" transform="translate(-220.652 -148.365)" fill="#ebbf97"/>
    <path id="Path_59" data-name="Path 59" d="M744.79,670.44l22.118-9.81V677.8a7.605,7.605,0,0,1-1.434-.672c-4.369-2.7-9.81-.6-10.195-.6a11.593,11.593,0,0,1-9.4-.928c-.2-.121-.407-.234-.6-.332C744.949,672.523,744.79,670.44,744.79,670.44Z" transform="translate(-212.179 -200.147)" opacity="0.1"/>
    <path id="Path_60" data-name="Path 60" d="M817.967,656.14v18.013a8.068,8.068,0,0,0-.755,1.668c-.8,1.856-6.226,2.52-10.995,1.736a68.056,68.056,0,0,0-9.138-.574c-.7-5.041-1.2-11.04-1.2-11.04Z" transform="translate(-224.716 -199.046)" opacity="0.1"/>
    <path id="Path_61" data-name="Path 61" d="M817.749,617.665c-3.713.528-12.979,8.474-17.612,10.066s-4.105,1.849-4.9,3.705-6.226,2.513-10.995,1.728-13.772-.536-13.772-.536-10.029,1.736-14.428-.988-9.81-.6-10.195-.6a11.594,11.594,0,0,1-9.4-.928c-4.633-2.785-10.859-1.721-10.859-1.721s-5.033-2.913-7.946-1.321-9.267-3.177-10.859-4.633,3.018-6.089,6.49-7.418S723.34,593.563,724,592.906s3.577-7.682,3.177-10.459,7.546-15.5,7.546-15.5l5.026-17.1,1.509-5.282.06-3.147c0-1.419.068-3.237.106-5.282.136-8.452.279-20.986,0-26.653-.045-.875-.09-1.585-.151-2.1-.664-5.69,5.282-18.111,6.754-20.654,1.087-1.879,8.12-3.305,12.308-4.188a26.959,26.959,0,0,0,2.958-.709,3.457,3.457,0,0,1,1.162-.091c3.954.158,15.613,2.6,15.613,2.6-1.057,31.912,1.064,26.351,1.064,26.351,3.441-2.649,1.321-26.087,1.321-26.087,1.72.792,3.479-1.2,3.479-1.2l6.716,2.784a66.425,66.425,0,0,1,5.924,4.007,17.852,17.852,0,0,1,4.143,4.075c1.985,3.313,4.769,12.715,4.769,12.715l-2.385,3.773c-2.083,3.343-5.282,8.482-8.565,13.688L790.7,533.73c-2.6,4.135-4.724,7.493-5.607,8.859a3.292,3.292,0,0,0-.415,1.064,5.569,5.569,0,0,0-.1.755,11.868,11.868,0,0,0,.31,3.139c1.668,7.908,9.206,20.865,9.206,20.865s7.546,11.515,7.682,15.22,8.21,7.682,10.067,12.715,5.954,6.882,5.426,9.931,5.282,4.369,6.354,6.354S821.454,617.137,817.749,617.665Z" transform="translate(-202.773 -156.246)" fill="#fa595f"/>
    <path id="Path_62" data-name="Path 62" d="M864.717,618.014c-2.045,1.381-5.644,1.328-6.837,1.139l-.43-5.893,7.282.928A22.228,22.228,0,0,0,864.717,618.014Z" transform="translate(-239.825 -188.523)" opacity="0.1"/>
    <path id="Path_63" data-name="Path 63" d="M829.75,510.09l5.433,3.841s2.513,10.059,4.761,13.636a15.763,15.763,0,0,1,1.985,8.21,28.631,28.631,0,0,1,2.12,2.649c1.592,2.12,3.705,12.753,2.913,14.126s4.573,12.753,4.573,12.753.755.755,2.317,4.9,0,8.874,0,8.874,4.105,9.138,2.385,11.651-7.289,2.264-8.082,1.985,2.12-1.72-3.018-2.12-11.923-9.531-11.923-9.531a56.927,56.927,0,0,1-5.826-15.492,114.02,114.02,0,0,0-4.762-16.42c-.664-1.985-3.577-14.828-3.577-14.828Z" transform="translate(-230.402 -163.206)" fill="#fa595f"/>
    <path id="Path_64" data-name="Path 64" d="M778.025,510.09s-.4,30.72-4.105,36.81Z" transform="translate(-219.327 -163.206)" opacity="0.1"/>
    <path id="Path_65" data-name="Path 65" d="M805.619,524.48s-3.441,30.72-6.158,32.3S805.619,524.48,805.619,524.48Z" transform="translate(-225.468 -166.737)" opacity="0.1"/>
    <path id="Path_66" data-name="Path 66" d="M799.115,518.69s-.838,28.969-5.207,31.829S799.115,518.69,799.115,518.69Z" transform="translate(-223.952 -165.316)" opacity="0.1"/>
    <path id="Path_67" data-name="Path 67" d="M749.164,591.33s-5.479,16.02-4.86,22.638S749.164,591.33,749.164,591.33Z" transform="translate(-212.048 -183.142)" opacity="0.1"/>
    <path id="Path_68" data-name="Path 68" d="M796.316,566.642c-7.169,1.607-26.562,4.49-43.616-6.12,0-1.419.068-3.237.106-5.282,6.475,3.562,24.661,12.828,33.919,10.232,4.618-1.32,7.546-2.158,9.38-2.7A9.978,9.978,0,0,0,796.316,566.642Z" transform="translate(-214.12 -174.285)" opacity="0.1"/>
    <path id="Path_69" data-name="Path 69" d="M796.316,564.542c-7.169,1.6-26.562,4.482-43.616-6.12,0-1.419.068-3.245.106-5.282,6.475,3.562,24.661,12.828,33.919,10.232,4.618-1.313,7.546-2.158,9.38-2.694A9.984,9.984,0,0,0,796.316,564.542Z" transform="translate(-214.12 -173.77)" opacity="0.1"/>
    <path id="Path_70" data-name="Path 70" d="M796.316,565.292c-7.169,1.6-26.562,4.482-43.616-6.12,0-1.419.068-3.237.106-5.282,6.475,3.562,24.661,12.828,33.919,10.232,4.618-1.313,7.546-2.158,9.38-2.694A9.984,9.984,0,0,0,796.316,565.292Z" transform="translate(-214.12 -173.954)" fill="#605d82"/>
    <path id="Path_71" data-name="Path 71" d="M796.316,565.292c-7.169,1.6-26.562,4.482-43.616-6.12,0-1.419.068-3.237.106-5.282,6.475,3.562,24.661,12.828,33.919,10.232,4.618-1.313,7.546-2.158,9.38-2.694A9.984,9.984,0,0,0,796.316,565.292Z" transform="translate(-214.12 -173.954)" fill="#4d4d4d"/>
    <path id="Path_72" data-name="Path 72" d="M766,807.9a1.237,1.237,0,0,1-.045.324l-11.07,8.444c1.766-1.607,2.219-5.35,2.211-8.821v-1.132a22.343,22.343,0,0,1,4.09-6.535c1.887-.49,3.071,0,3.773.853v.241a3.471,3.471,0,0,1,.392.589C766.456,803.768,766.139,806.885,766,807.9Z" transform="translate(-214.655 -234.344)" opacity="0.1"/>
    <path id="Path_73" data-name="Path 73" d="M765.754,803.783l-8.354,5.735s.053-.672.128-1.66a22.861,22.861,0,0,1,4.279-6.98c1.887-.483,3.071,0,3.773.853C765.648,802.968,765.754,803.783,765.754,803.783Z" transform="translate(-215.273 -234.516)" opacity="0.1"/>
    <path id="Path_74" data-name="Path 74" d="M765.4,809.011a20.829,20.829,0,0,0-1.736,8.527,13.16,13.16,0,0,1-1.773,6.875,5.9,5.9,0,0,1-.581.837s-5.8-.045-7.833-1.728a1.983,1.983,0,0,1-.558-.641c-1.162-2.317,2.264-11.191,2.264-11.191a24.6,24.6,0,0,1,5.448-10.5C767.146,799.488,765.4,809.011,765.4,809.011Z" transform="translate(-214.115 -234.591)" fill="#fa595f"/>
    <path id="Path_75" data-name="Path 75" d="M762.154,827.874a5.908,5.908,0,0,1-.581.838s-5.8-.045-7.833-1.728c1-3.305,4.188-13.3,5.675-11.606S761.8,824.682,762.154,827.874Z" transform="translate(-214.375 -238.074)" opacity="0.1"/>
    <path id="Path_76" data-name="Path 76" d="M763.7,816.024l-.4,14.986h1.947s.309-13.145,1.185-14.986S763.7,816.024,763.7,816.024Z" transform="translate(-216.721 -238.08)" fill="#fa595f"/>
    <path id="Path_77" data-name="Path 77" d="M817.063,803.419l-.045.309h0L806,812.112c1.713-1.645,2.158-5.343,2.151-8.768V802.2a22.318,22.318,0,0,1,4.082-6.527c1.887-.49,3.079,0,3.811.845v.249a3.137,3.137,0,0,1,.392.581C817.53,799.291,817.206,802.415,817.063,803.419Z" transform="translate(-227.2 -233.239)" opacity="0.1"/>
    <path id="Path_78" data-name="Path 78" d="M816.8,799.273l-8.353,5.743s.053-.672.136-1.66a22.64,22.64,0,0,1,4.271-6.98c1.886-.483,3.071-.038,3.811.853C816.7,798.466,816.8,799.273,816.8,799.273Z" transform="translate(-227.801 -233.41)" opacity="0.1"/>
    <path id="Path_79" data-name="Path 79" d="M816.466,804.51a20.709,20.709,0,0,0-1.743,8.527,13.157,13.157,0,0,1-1.773,6.874,6.546,6.546,0,0,1-.581.838s-5.8-.045-7.833-1.728a2.083,2.083,0,0,1-.543-.649c-1.155-2.317,2.264-11.191,2.264-11.191a24.6,24.6,0,0,1,5.448-10.5C818.2,795,816.466,804.51,816.466,804.51Z" transform="translate(-226.649 -233.486)" fill="#fa595f"/>
    <path id="Path_80" data-name="Path 80" d="M813.2,823.4a6.547,6.547,0,0,1-.581.838s-5.8-.045-7.833-1.728c1-3.305,4.188-13.311,5.675-11.613S812.849,820.187,813.2,823.4Z" transform="translate(-226.903 -236.975)" opacity="0.1"/>
    <path id="Path_81" data-name="Path 81" d="M814.758,811.524,814.35,826.5H816.3s.309-13.138,1.185-14.979S814.758,811.524,814.758,811.524Z" transform="translate(-229.249 -236.975)" fill="#fa595f"/>
    <path id="Path_82" data-name="Path 82" d="M819.468,503.247c-.091,3.773-2.151,7.8-5.765,8.919-1.056.324-2.181.4-3.26.619a6.979,6.979,0,0,0-1.509.46c-2.317,1.064-3.471,3.705-3.939,6.21-.166.86-.272,1.728-.377,2.6a18.711,18.711,0,0,1-1.034,4.882,12.36,12.36,0,0,1-5.086,5.8,32.751,32.751,0,0,1-8.444,3.532,18.979,18.979,0,0,0,2.264-15.771c-.483-1.547-1.509-3.275-3.147-3.23-1.275.038-2.188,1.17-3.139,2.03-4.679,4.211-12,2.332-17.922.211,10.565-10.738,13.5-28.177,7.131-41.8a13.793,13.793,0,0,1-1.3-3.373,7.032,7.032,0,0,1,.325-3.486,15.45,15.45,0,0,1,2.143-3.992c.37-.521.754-1.034,1.147-1.555.505-.687,1.011-1.381,1.464-2.1a11.537,11.537,0,0,0,1.509-3.267c.672-2.566-.272-5.81-2.754-6.686l-.136-.053c-2.747-.86-3.6-1.117-5.471-3.32-1.253-1.464-1.962-3.773-4.105-4.2-1.645-.34-3.486.392-5.214.838a14.571,14.571,0,1,1,26.26,10.693c1.932,6.339,6.935,11.395,10.768,14.511l6.716,2.784a66.448,66.448,0,0,1,5.924,4.007,86.641,86.641,0,0,0,4.271,13.8,48.644,48.644,0,0,1,2.264,6.792,16.717,16.717,0,0,1,.415,4.143Z" transform="translate(-216.611 -144.575)" opacity="0.1"/>
    <path id="Path_83" data-name="Path 83" d="M776.375,449.824c2.581.807,3.577,4.128,2.89,6.739s-2.536,4.724-4.1,6.92-2.951,4.822-2.475,7.478a13.791,13.791,0,0,0,1.3,3.373,38.181,38.181,0,0,1-7.131,41.8c5.924,2.12,13.251,4,17.922-.211.951-.86,1.864-1.992,3.139-2.03,1.622-.053,2.671,1.683,3.147,3.23a18.963,18.963,0,0,1-2.264,15.764c5.456-1.585,11.447-4.037,13.537-9.319.936-2.362.936-4.988,1.4-7.493s1.622-5.139,3.939-6.2c1.509-.679,3.207-.6,4.769-1.079,3.615-1.124,5.675-5.139,5.765-8.919s-1.358-7.41-2.716-10.934c-7.546-19.62-.453-3.9-4.588-27.513-.845-4.822.475-7.7,1.554-12.474s.845-10.293-2.468-13.9-8.459-4.279-12.572-6.724c-3.645-2.173-6.852-5.833-11.093-5.765-3.109.045-3.1.551-5.969,1.758-4.958,2.083-10.519,1.456-15.56,3.177-4.528,1.555-10.278,6.641-8.9,12.074,1.849,7.312,6.92,1.932,10.874,2.754,2.143.453,2.852,2.732,4.1,4.2C772.783,448.7,773.628,448.963,776.375,449.824Z" transform="translate(-214.855 -141.726)" fill="#603b00"/>
    <path id="Path_84" data-name="Path 84" d="M713.421,573.7s-2.143-.226-5.026-.672c-7.546-1.147-20.307-3.773-13.047-7.546,6.663-3.486,15.847-.528,21.22,1.841a47,47,0,0,1,4.467,2.264Z" transform="translate(-199.516 -176.406)" fill="#ebbe97"/>
    <path id="Path_85" data-name="Path 85" d="M767.654,509.875s-3.441,17.356-5.162,21.182-4.528,13.907-4.528,13.907-4.067,3.683-7.425,7.259l1.509-5.282.06-3.147c0-1.419.068-3.237.106-5.282.136-8.452.279-20.986,0-26.653.294-.551.483-.89.483-.89l2.679-4.249s4.369-11.651,6.882-14.964S767.654,509.875,767.654,509.875Z" transform="translate(-213.59 -158.621)" opacity="0.1"/>
    <path id="Path_86" data-name="Path 86" d="M720.795,572.009s-.385,1.509-1.034,3.547c-.823-.332-1.509-.6-2.015-.755-2.264-.755.4-1.721-.264-3.705-.566-1.706-1.615-1.17-2.822-1.645a32.986,32.986,0,0,1,2.558-3.071Z" transform="translate(-204.785 -177.019)" opacity="0.1"/>
    <path id="Path_87" data-name="Path 87" d="M746.5,506.7l-2.679,4.248s-3.637,6.739-4.2,8.829-1.7,10.089-3.962,11.945-6.89,7.81-6.225,9-6.226,2.649-6.226,2.649-4.633,1.856-4.369,3.313-3.841,2.649-2.384,3.705,2.785,0,3.449,1.985-1.992,2.92.264,3.713,9.667,3.894,9.667,3.894,5.954,1,7.674-2.573,11.523-12.444,11.523-12.444,2.777-10.066,4.528-13.907,5.169-21.182,5.169-21.182-2.784-21.453-5.282-18.111S746.5,506.7,746.5,506.7Z" transform="translate(-205.147 -158.622)" fill="#fa595f"/>
    <path id="Path_88" data-name="Path 88" d="M743.718,556.94s-13.107,1.72-6.09,4.633,9.4,0,9.4,0Z" transform="translate(-209.914 -174.702)" opacity="0.1"/>
    <path id="Path_89" data-name="Path 89" d="M724.79,567.061s7.682-1.585,9.667,0S724.79,567.061,724.79,567.061Z" transform="translate(-207.271 -177.013)" opacity="0.1"/>
    <path id="Path_90" data-name="Path 90" d="M723.74,572.368s.528-1.328,3.177,0S723.74,572.368,723.74,572.368Z" transform="translate(-207.013 -178.344)" opacity="0.1"/>
    <path id="Path_91" data-name="Path 91" d="M838.58,589.32s.8,12.074,4.052,12.466S838.58,589.32,838.58,589.32Z" transform="translate(-235.195 -182.648)" opacity="0.1"/>
    <path id="Path_92" data-name="Path 92" d="M846.521,553.1s.551,3.69-2.905,4.354S846.521,553.1,846.521,553.1Z" transform="translate(-236.178 -173.76)" opacity="0.1"/>
    <path id="Path_93" data-name="Path 93" d="M795.85,600.69s-.173,37.255,7.418,41.843Z" transform="translate(-224.709 -185.439)" opacity="0.1"/>
    <path id="Path_94" data-name="Path 94" d="M809.18,602.8s-.136,37.247,7.41,41.843Z" transform="translate(-227.98 -185.956)" opacity="0.1"/>
    <path id="Path_95" data-name="Path 95" d="M755.72,709.651a27.907,27.907,0,0,1,5.169,0C763.764,709.885,755.72,709.651,755.72,709.651Z" transform="translate(-214.861 -212.148)" opacity="0.1"/>
    <path id="Path_96" data-name="Path 96" d="M755.72,713.1a27.928,27.928,0,0,1,5.169,0C763.764,713.365,755.72,713.1,755.72,713.1Z" transform="translate(-214.861 -212.994)" opacity="0.1"/>
    <path id="Path_97" data-name="Path 97" d="M807.77,705.6a27.929,27.929,0,0,1,5.169,0C815.814,705.873,807.77,705.6,807.77,705.6Z" transform="translate(-227.634 -211.154)" opacity="0.1"/>
    <path id="Path_98" data-name="Path 98" d="M808.94,708.361a27.929,27.929,0,0,1,5.169,0C816.977,708.625,808.94,708.361,808.94,708.361Z" transform="translate(-227.921 -211.831)" opacity="0.1"/>
    <g id="Group_1" data-name="Group 1" transform="translate(540.999 286.184)" opacity="0.1">
      <path id="Path_99" data-name="Path 99" d="M769.7,516.565c10.564-10.738,13.5-28.169,7.131-41.8a13.788,13.788,0,0,1-1.3-3.373c-.475-2.656.906-5.282,2.475-7.478s3.418-4.309,4.1-6.92-.309-5.931-2.89-6.731c-2.747-.86-3.6-1.124-5.471-3.328-1.253-1.464-1.962-3.773-4.105-4.2-3.954-.822-9.055,4.528-10.874-2.762-1.041-4.09,2-8,5.509-10.331-4.384,1.819-9.455,6.648-8.157,11.757,1.849,7.312,6.92,1.939,10.874,2.762,2.143.445,2.853,2.732,4.105,4.2,1.879,2.2,2.724,2.468,5.471,3.328,2.581.8,3.577,4.12,2.89,6.731s-2.536,4.724-4.1,6.92-2.95,4.822-2.475,7.486a13.86,13.86,0,0,0,1.3,3.366,38.177,38.177,0,0,1-7.131,41.8c5.7,2.045,12.7,3.856,17.356.234C779.989,519.78,774.4,518.248,769.7,516.565Z" transform="translate(-755.906 -429.65)"/>
      <path id="Path_100" data-name="Path 100" d="M827.819,536.2a5.2,5.2,0,0,0-1.509,1.041c1.192-.294,2.452-.332,3.622-.7a6.79,6.79,0,0,0,2.46-1.373C830.89,535.593,829.245,535.547,827.819,536.2Z" transform="translate(-773.183 -455.544)"/>
      <path id="Path_101" data-name="Path 101" d="M807.923,558.786a41.752,41.752,0,0,1-5.735,2.075,18.962,18.962,0,0,0,2.264-15.764c-.475-1.509-1.509-3.283-3.147-3.237a4.022,4.022,0,0,0-2.505,1.434c1.509.053,2.543,1.728,3.019,3.23a18.963,18.963,0,0,1-2.264,15.764A33.148,33.148,0,0,0,807.923,558.786Z" transform="translate(-766.432 -457.185)"/>
    </g>
  </g>
</svg>
