<svg id="Group_4" data-name="Group 4" xmlns="http://www.w3.org/2000/svg" width="358.587" height="356.563" viewBox="0 0 358.587 356.563">
  <path id="Path_140" data-name="Path 140" d="M749.9,256.8q6.45,3.4,12.61,6.968" transform="translate(-506.872 -160.735)" fill="none" stroke="#2f2e41" stroke-miterlimit="10" stroke-width="1"/>
  <path id="Path_141" data-name="Path 141" d="M562.441,223.849A275.082,275.082,0,0,1,622.3,244.786a286.32,286.32,0,0,1,42.73,25.079" transform="translate(-399.43 -141.852)" fill="none" stroke="#2f2e41" stroke-miterlimit="10" stroke-width="1"/>
  <line id="Line_2" data-name="Line 2" x2="192.315" transform="translate(100.581 355.678)" fill="none" stroke="#3f3d56" stroke-miterlimit="10" stroke-width="1"/>
  <path id="Path_142" data-name="Path 142" d="M521.327,216.817c5.636.693,11.5,1.694,17.55,3" transform="translate(-375.866 -137.822)" fill="none" stroke="#2f2e41" stroke-miterlimit="10" stroke-width="1"/>
  <path id="Path_143" data-name="Path 143" d="M377.2,274.1c-10.413-15.238-13.99-29.636-8.64-40.805,5.917-12.354,21.757-18.673,43.227-19.138" transform="translate(-286.898 -136.295)" fill="none" stroke="#2f2e41" stroke-miterlimit="10" stroke-width="1"/>
  <path id="Path_144" data-name="Path 144" d="M877.521,434.318c8.679,13.972,11.372,27.07,6.422,37.405-4.356,9.095-14.09,14.919-27.49,17.545" transform="translate(-567.94 -262.481)" fill="none" stroke="#2f2e41" stroke-miterlimit="10" stroke-width="1"/>
  <path id="Path_145" data-name="Path 145" d="M802.78,331.65a212.629,212.629,0,0,1,24.6,20.385" transform="translate(-537.178 -203.637)" fill="none" stroke="#2f2e41" stroke-miterlimit="10" stroke-width="1"/>
  <path id="Path_146" data-name="Path 146" d="M378.605,169.13c17.284-3.713,39.651-3.053,64.666,1.878" transform="translate(-294.066 -109.131)" fill="none" stroke="#2f2e41" stroke-miterlimit="10" stroke-width="1"/>
  <path id="Path_147" data-name="Path 147" d="M967.943,434.314c7.738,11.3,12.5,22.241,13.741,32.2" transform="translate(-631.84 -262.478)" fill="none" stroke="#2f2e41" stroke-miterlimit="10" stroke-width="1"/>
  <path id="Path_148" data-name="Path 148" d="M779.444,273.12q11.642,6.731,22.154,13.924" transform="translate(-523.803 -170.091)" fill="none" stroke="#2f2e41" stroke-miterlimit="10" stroke-width="1"/>
  <path id="Path_149" data-name="Path 149" d="M792.039,663.141a10.7,10.7,0,0,0-9.224,6.45c-2.307,5.576.663,12.125,5.122,16.191s10.185,6.39,15.389,9.445c6.989,4.1,13.27,9.8,16.767,17.11s3.869,16.368-.242,23.352c-3.815,6.483-10.753,10.363-17.37,13.942" transform="translate(-525.276 -393.628)" fill="none" stroke="#3f3d56" stroke-miterlimit="10" stroke-width="1"/>
  <ellipse id="Ellipse_66" data-name="Ellipse 66" cx="8.149" cy="3.958" rx="8.149" ry="3.958" transform="translate(264.491 266.04)" fill="#57b894"/>
  <ellipse id="Ellipse_67" data-name="Ellipse 67" cx="8.149" cy="3.958" rx="8.149" ry="3.958" transform="translate(271.01 292.117)" fill="#57b894"/>
  <ellipse id="Ellipse_68" data-name="Ellipse 68" cx="8.149" cy="3.958" rx="8.149" ry="3.958" transform="translate(256.109 296.308)" fill="#57b894"/>
  <ellipse id="Ellipse_69" data-name="Ellipse 69" cx="8.149" cy="3.958" rx="8.149" ry="3.958" transform="translate(279.392 318.193)" fill="#57b894"/>
  <ellipse id="Ellipse_70" data-name="Ellipse 70" cx="8.149" cy="3.958" rx="8.149" ry="3.958" transform="translate(295.689 318.193)" fill="#57b894"/>
  <path id="Path_150" data-name="Path 150" d="M693.268,303.075h4.591s4.208,32.517,1.148,35.578-11.477,4.973-12.624,0,0-23.336,0-23.336Z" transform="translate(-470.173 -187.26)" fill="#fa595f"/>
  <ellipse id="Ellipse_71" data-name="Ellipse 71" cx="27.927" cy="32.709" rx="27.927" ry="32.709" transform="translate(165.137 54.797)" fill="#2f2e41"/>
  <path id="Path_151" data-name="Path 151" d="M612.324,245.958s1.53,12.624-3.06,15.3,5.356,17.98,5.356,17.98l11.859,3.06,8.034-11.094-1.53-11.477s-9.181-9.181-4.973-17.6Z" transform="translate(-425.572 -152.331)" fill="#ebbe97"/>
  <path id="Path_152" data-name="Path 152" d="M612.324,245.958s1.53,12.624-3.06,15.3,5.356,17.98,5.356,17.98l11.859,3.06,8.034-11.094-1.53-11.477s-9.181-9.181-4.973-17.6Z" transform="translate(-425.572 -152.331)" opacity="0.1"/>
  <path id="Path_153" data-name="Path 153" d="M574.989,566.486s-4.591,41.7,0,51.645S591.822,656,591.822,656L588,664.038l10.329-2.3,4.208-8.034s-4.973-19.51-5.738-26.4-6.5-19.51-6.5-19.51L601,562.277Z" transform="translate(-405.452 -335.819)" fill="#ebbe97"/>
  <path id="Path_154" data-name="Path 154" d="M662.869,548.615s.383,42.081,3.06,48.609l-1.53,57,8.416,1.124s12.242-47.82,10.329-59.3.383-52.793.383-52.793Z" transform="translate(-456.989 -324.919)" fill="#ebbe97"/>
  <circle id="Ellipse_72" data-name="Ellipse 72" cx="14.537" cy="14.537" r="14.537" transform="translate(178.527 69.717)" fill="#ebbe97"/>
  <path id="Path_155" data-name="Path 155" d="M642.7,403.757s-10.329,6.886-14.537,1.913-55.853,3.06-62.357,1.53,3.443-26.014,3.443-38.638c0-9.445,3.428-23.814,5.153-30.455.581-2.234.968-3.592.968-3.592s3.925-11.167,3.191-15.807a3.992,3.992,0,0,0-.287-1.021,2.1,2.1,0,0,0-.226-.386c-1.833-2.445-7.085-20.272-9.124-27.927a34.547,34.547,0,0,1-.823-3.443c0-1.148,14.155-4.591,17.693-4.755s4.5,4.755,4.5,4.755c1.148.765,6.5,14.155,6.5,14.155l4.973-12.624s-.383-2.678-.765-2.678,5.658-3.611,5.658-3.611,6.2,4.376,9.644,3.611,11.477,6.121,11.477,6.121-14.155,35.578-8.416,43.229S642.7,403.757,642.7,403.757Z" transform="translate(-400.093 -174.706)" fill="#fa595f"/>
  <path id="Path_156" data-name="Path 156" d="M598.427,772.857s-6.5,6.5-6.5,7.269l-5.356-2.3s-2.3,8.416-2.678,9.564S577,798.871,570.5,803.461s0,10.329,5.738,9.181,20.276-14.155,20.276-14.155,9.946,0,13.39-7.651C609.9,790.837,600.722,772.092,598.427,772.857Z" transform="translate(-402.494 -456.498)" fill="#2f2e41"/>
  <path id="Path_157" data-name="Path 157" d="M668.856,794.265s-9.828-7.141-10.461-.51-.633,21.168-.633,21.168-3.06,9.564,6.5,8.416,10.329-3.826,10.329-3.826L670,801.151v-8.034Z" transform="translate(-453.795 -466.872)" fill="#2f2e41"/>
  <path id="Path_158" data-name="Path 158" d="M585.195,328.313c-1.832-2.445-7.085-20.272-9.124-27.927h1.855s4.66,18.237,7.494,28.313A2.1,2.1,0,0,0,585.195,328.313Z" transform="translate(-407.242 -185.719)" opacity="0.1"/>
  <path id="Path_159" data-name="Path 159" d="M617.8,392.949s-5.356.383-24.866-3.443a39.015,39.015,0,0,1-4.028-1c.581-2.234.968-3.592.968-3.592s3.925-11.167,3.191-15.807a33.537,33.537,0,0,0,1.783,5.478c.765.383,25.249,4.591,28.692,6.121S617.8,392.949,617.8,392.949Z" transform="translate(-414.597 -225.106)" opacity="0.1"/>
  <path id="Path_160" data-name="Path 160" d="M672.727,307.028s10.552-1.3,11.206.409,3.332,18.245,4.479,20.365,1.53,15.263-3.06,15.687-10.712-4.24-9.564-8.055S672.727,307.028,672.727,307.028Z" transform="translate(-462.639 -189.253)" opacity="0.1"/>
  <path id="Path_161" data-name="Path 161" d="M655.557,388.445s16.067,1.913,18.745,0,13.772-1.913,11.477,3.443-22.188,5.738-22.188,5.738H652.114Z" transform="translate(-450.825 -235.522)" fill="#ebbe97"/>
  <path id="Path_162" data-name="Path 162" d="M570.482,294.112H567.8s-5.356,1.148-4.591,17.98-4.591,27.927,14.92,31.752S603,347.288,603,347.288s9.181-10.712,5.738-12.242-27.927-5.738-28.692-6.121S570.482,294.112,570.482,294.112Z" transform="translate(-399.798 -182.123)" fill="#fa595f"/>
  <path id="Path_163" data-name="Path 163" d="M670.685,278.035s-6.7-25.148-12.059-25.148-11.477,1.148-6.886,6.121,10.329,10.329,10.712,13.007a36.048,36.048,0,0,0,1.913,6.5Z" transform="translate(-449.685 -158.495)" fill="#ebbe97"/>
  <path id="Path_164" data-name="Path 164" d="M676.312,307.028s10.552-1.3,11.206.409S690.849,325.682,692,327.8s1.53,15.263-3.06,15.687-10.712-4.24-9.564-8.055S676.312,307.028,676.312,307.028Z" transform="translate(-464.694 -189.253)" fill="#fa595f"/>
  <circle id="Ellipse_73" data-name="Ellipse 73" cx="13.772" cy="13.772" r="13.772" transform="translate(175.466 56.71)" fill="#2f2e41"/>
  <path id="Path_165" data-name="Path 165" d="M568.591,468.875c-21.372-3.522-45.55-11.179-69.939-22.862-27.77-13.3-51.3-29.66-68.069-46.193" transform="translate(-323.857 -242.708)" fill="none" stroke="#2f2e41" stroke-miterlimit="10" stroke-width="1"/>
  <path id="Path_166" data-name="Path 166" d="M481.937,481.41a345.807,345.807,0,0,1-51.356-32.384" transform="translate(-323.856 -270.91)" fill="none" stroke="#2f2e41" stroke-miterlimit="10" stroke-width="1"/>
  <circle id="Ellipse_74" data-name="Ellipse 74" cx="22.922" cy="22.922" r="22.922" transform="translate(0 9.839)" fill="#d6a75d"/>
  <circle id="Ellipse_75" data-name="Ellipse 75" cx="22.922" cy="22.922" r="22.922" transform="translate(5.377 0.5)" fill="none" stroke="#2f2e41" stroke-miterlimit="10" stroke-width="1"/>
  <circle id="Ellipse_76" data-name="Ellipse 76" cx="13.337" cy="13.337" r="13.337" transform="translate(328.285 102.221)" fill="#fffcef"/>
  <circle id="Ellipse_77" data-name="Ellipse 77" cx="13.337" cy="13.337" r="13.337" transform="translate(331.413 96.787)" fill="none" stroke="#2f2e41" stroke-miterlimit="10" stroke-width="1"/>
  <circle id="Ellipse_78" data-name="Ellipse 78" cx="19.172" cy="19.172" r="19.172" transform="translate(79.161 235.408)" fill="#fffcef"/>
  <circle id="Ellipse_79" data-name="Ellipse 79" cx="19.172" cy="19.172" r="19.172" transform="translate(83.658 227.597)" fill="none" stroke="#2f2e41" stroke-miterlimit="10" stroke-width="1"/>
</svg>
